<svg xmlns="http://www.w3.org/2000/svg" width="212" height="212" viewBox="0 0 212 212">
  <g fill="none" fill-rule="evenodd" transform="translate(22 22)">
    <path stroke="#1E2126" stroke-linecap="round" stroke-linejoin="round" stroke-width="4" d="M69.3,159.4936 L50.07,159.4936 C36.184,159.4936 24.926,148.2356 24.926,134.3516 L24.926,120.2676"/>
    <path fill="#7289DA" d="M132.6594 129.1636L127.0714 129.1636C124.8094 129.1636 122.9754 127.3276 122.9754 125.0656L122.9754 83.4376C122.9754 81.1756 124.8094 79.3396 127.0714 79.3396L132.6594 79.3396 132.6594 129.1636zM34.3176 129.1636L39.9036 129.1636C42.1676 129.1636 44.0016 127.3276 44.0016 125.0656L44.0016 83.4376C44.0016 81.1756 42.1676 79.3396 39.9036 79.3396L34.3176 79.3396 34.3176 129.1636zM48.925 31.9996L57.109 40.1836C57.851 40.9256 59.017 40.9616 59.843 40.3136 73.579 29.5636 93.405 29.5756 107.141 40.3156 107.967 40.9616 109.133 40.9276 109.875 40.1856L118.045 32.0156 105.459 18.3596 71.849 9.9376 55.497 23.5276 48.925 31.9996z"/>
    <path stroke="#1E2126" stroke-linecap="round" stroke-linejoin="round" stroke-width="4" d="M132.6594 129.1636L127.0714 129.1636C124.8094 129.1636 122.9754 127.3276 122.9754 125.0656L122.9754 83.4376C122.9754 81.1756 124.8094 79.3396 127.0714 79.3396L132.6594 79.3396 132.6594 129.1636zM34.3176 129.1636L39.9036 129.1636C42.1676 129.1636 44.0016 127.3276 44.0016 125.0656L44.0016 83.4376C44.0016 81.1756 42.1676 79.3396 39.9036 79.3396L34.3176 79.3396 34.3176 129.1636zM48.925 31.9996L57.109 40.1836C57.851 40.9256 59.017 40.9616 59.843 40.3136 73.579 29.5636 93.405 29.5756 107.141 40.3156 107.967 40.9616 109.133 40.9276 109.875 40.1856L118.045 32.0156 105.459 18.3596 71.849 9.9376 55.497 23.5276 48.925 31.9996z"/>
    <path fill="#FFD671" d="M151.4386,131.4996 L151.4386,131.4996 L137.0526,131.4996 L139.1026,79.6276 L151.4386,77.5796 C160.9526,77.5796 168.6666,85.2916 168.6666,94.8076 L168.6666,114.2716 C168.6666,123.7876 160.9526,131.4996 151.4386,131.4996"/>
    <path stroke="#1E2126" stroke-linecap="round" stroke-linejoin="round" stroke-width="4" d="M150.7716,131.2124 L150.7716,131.2124 C160.2856,131.2124 167.9996,123.4984 167.9996,113.9844 L167.9996,94.5184 C167.9996,85.0044 160.2856,77.2904 150.7716,77.2904"/>
    <path fill="#FFD671" d="M17.2286,131.2124 L17.2286,131.2124 L17.2286,77.2904 C7.7126,77.2904 0.0006,85.0044 0.0006,94.5184 L0.0006,113.9844 C0.0006,123.4984 7.7126,131.2124 17.2286,131.2124"/>
    <path stroke="#1E2126" stroke-linecap="round" stroke-linejoin="round" stroke-width="4" d="M17.2286,77.2906 C7.7126,77.2906 0.0006,85.0046 0.0006,94.5186 L0.0006,113.9846 C0.0006,123.4986 7.7126,131.2126 17.2286,131.2126"/>
    <path fill="#F3F8FF" d="M83.4836,1.9996 C46.9476,1.9996 17.2256,31.7236 17.2256,68.2616 L17.2256,135.8456 C17.2256,140.5556 21.0576,144.3876 25.7696,144.3876 C30.4816,144.3876 34.3136,140.5556 34.3136,135.8456 L34.3136,68.8636 C34.3136,41.7496 56.3696,19.6916 83.4836,19.6916 C110.5976,19.6916 132.6556,41.7496 132.6556,68.8636 L132.6556,135.8456 C132.6556,140.5556 136.4876,144.3876 141.1996,144.3876 C145.9116,144.3876 149.7436,140.5556 149.7436,135.8456 L149.7436,68.2616 C149.7436,31.7236 120.0196,1.9996 83.4836,1.9996"/>
    <path fill="#7289DA" d="M72.214,166.6186 L63.5,166.6186 C59.57,166.6186 56.356,163.4046 56.356,159.4746 C56.356,155.5446 59.57,152.3286 63.5,152.3286 L72.214,152.3286 C76.142,152.3286 79.358,155.5446 79.358,159.4746 C79.358,163.4046 76.142,166.6186 72.214,166.6186"/>
    <path stroke="#1E2126" stroke-linecap="round" stroke-linejoin="round" stroke-width="4" d="M72.214 166.6186L63.5 166.6186C59.57 166.6186 56.356 163.4046 56.356 159.4746 56.356 155.5446 59.57 152.3286 63.5 152.3286L72.214 152.3286C76.142 152.3286 79.358 155.5446 79.358 159.4746 79.358 163.4046 76.142 166.6186 72.214 166.6186zM24.9182 37.2906C20.0082 46.5386 17.2242 57.0806 17.2242 68.2606L17.2242 135.8446C17.2242 140.5566 21.0582 144.3886 25.7682 144.3886 30.4802 144.3886 34.3142 140.5566 34.3142 135.8446L34.3142 68.8626C34.3142 41.7486 56.3702 19.6906 83.4842 19.6906 110.5962 19.6906 132.6562 41.7486 132.6562 68.8626L132.6562 135.8446C132.6562 140.5566 136.4882 144.3886 141.2002 144.3886 145.9122 144.3886 149.7442 140.5566 149.7442 135.8446L149.7442 102.6366M32.4152 26.0854C31.6132 27.0554 30.8372 28.0494 30.0912 29.0634"/>
    <path stroke="#1E2126" stroke-linecap="round" stroke-linejoin="round" stroke-width="4" d="M149.7442,87.267 L149.7442,68.261 C149.7442,31.725 120.0202,1.999 83.4842,1.999 C68.0882,1.999 53.9022,7.279 42.6402,16.121"/>
  </g>
</svg>
