<svg xmlns="http://www.w3.org/2000/svg" width="212" height="212" viewBox="0 0 212 212">
  <g fill="none" fill-rule="evenodd" transform="translate(37 24)">
    <path stroke="#1E2126" stroke-linecap="round" stroke-linejoin="round" stroke-width="4" d="M97.8612,41.8708 L97.8612,98.5448 L39.8612,98.5448 L39.8612,30.9988 C39.8612,14.9848 52.8452,1.9988 68.8612,1.9988 C84.8772,1.9988 97.8612,14.9848 97.8612,30.9988"/>
    <path fill="#FFD671" d="M128.8612,103.8648 C128.8612,137.0008 101.9972,163.8648 68.8612,163.8648 C35.7232,163.8648 8.8612,137.0008 8.8612,103.8648 C8.8612,70.7288 35.7232,43.8648 68.8612,43.8648 C101.9972,43.8648 128.8612,70.7288 128.8612,103.8648"/>
    <path stroke="#1E2126" stroke-linecap="round" stroke-linejoin="round" stroke-width="4" d="M128.8612,103.8648 C128.8612,137.0008 101.9972,163.8648 68.8612,163.8648 C35.7232,163.8648 8.8612,137.0008 8.8612,103.8648 C8.8612,70.7288 35.7232,43.8648 68.8612,43.8648 C101.9972,43.8648 128.8612,70.7288 128.8612,103.8648 Z"/>
    <path fill="#FFAD45" d="M116.4472,103.8648 C116.4472,130.1468 95.1432,151.4508 68.8612,151.4508 C42.5792,151.4508 21.2752,130.1468 21.2752,103.8648 C21.2752,77.5828 42.5792,56.2788 68.8612,56.2788 C95.1432,56.2788 116.4472,77.5828 116.4472,103.8648"/>
    <path fill="#F3F8FF" d="M90.0742,125.0778 C78.3582,136.7918 59.3642,136.7918 47.6482,125.0778 C35.9322,113.3638 35.9322,94.3678 47.6482,82.6518 C59.3642,70.9358 78.3582,70.9358 90.0742,82.6518 C101.7902,94.3678 101.7902,113.3638 90.0742,125.0778"/>
    <path stroke="#1E2126" stroke-linecap="round" stroke-linejoin="round" stroke-width="4" d="M90.0742,125.0778 C78.3582,136.7918 59.3642,136.7918 47.6482,125.0778 C35.9322,113.3638 35.9322,94.3678 47.6482,82.6518 C59.3642,70.9358 78.3582,70.9358 90.0742,82.6518 C101.7902,94.3678 101.7902,113.3638 90.0742,125.0778 Z"/>
    <path fill="#1E2126" d="M78.4062,97.6442 C78.4062,102.9162 74.1322,107.1882 68.8622,107.1882 C63.5882,107.1882 59.3162,102.9162 59.3162,97.6442 C59.3162,92.3702 63.5882,88.0982 68.8622,88.0982 C74.1322,88.0982 78.4062,92.3702 78.4062,97.6442"/>
    <path fill="#1E2126" d="M72.247,118.0972 L65.475,118.0972 C64.333,118.0972 63.407,117.1712 63.407,116.0292 L63.407,98.3492 C63.407,97.2072 64.333,96.2792 65.475,96.2792 L72.247,96.2792 C73.389,96.2792 74.315,97.2072 74.315,98.3492 L74.315,116.0292 C74.315,117.1712 73.389,118.0972 72.247,118.0972"/>
    <path stroke="#D5DBED" stroke-linecap="round" stroke-linejoin="round" stroke-width="2" d="M13 30.3082C13 33.6222 10.314 36.3082 7 36.3082 3.686 36.3082 1 33.6222 1 30.3082 1 26.9962 3.686 24.3082 7 24.3082 10.314 24.3082 13 26.9962 13 30.3082zM159.6688 67.9312L157.6808 70.4052M149.664 78.2672L147.676 80.7412M160.077 80.4274L157.931 78.0574M149.414 70.6148L147.268 68.2448M134.0644 34.0972L134.0644 44.5052M139.2674 39.3024L128.8614 39.3024"/>
  </g>
</svg>
