<svg xmlns="http://www.w3.org/2000/svg" width="212" height="212" viewBox="0 0 212 212">
  <g fill="none" fill-rule="evenodd" transform="translate(34 24)">
    <path fill="#FFAD45" d="M90.9998,144.5974 C90.9998,134.1054 82.4938,127.5974 71.9998,127.5974 C61.5058,127.5974 52.9998,134.1054 52.9998,144.5974 C52.9998,155.0914 61.5058,163.5974 71.9998,163.5974 C82.4938,163.5974 90.9998,155.0914 90.9998,144.5974"/>
    <path stroke="#1E2126" stroke-linecap="round" stroke-linejoin="round" stroke-width="4" d="M90.9998,144.5974 C90.9998,134.1054 82.4938,127.5974 71.9998,127.5974 C61.5058,127.5974 52.9998,134.1054 52.9998,144.5974 C52.9998,155.0914 61.5058,163.5974 71.9998,163.5974 C82.4938,163.5974 90.9998,155.0914 90.9998,144.5974 Z"/>
    <path fill="#FFD671" d="M128.538,112.4196 L128.538,69.7116 C128.538,41.3116 103.224,15.9996 72,15.9996 C40.776,15.9996 15.462,41.3116 15.462,69.7116 L15.462,112.4196 L1.734,123.2276 C0.65,123.9736 0,125.2076 0,126.5236 L0,132.0396 C0,138.5276 5.26,143.7876 11.748,143.7876 L132.252,143.7876 C138.74,143.7876 144,138.5276 144,132.0396 L144,126.5236 C144,125.2076 143.352,123.9736 142.266,123.2276 L128.538,112.4196 Z"/>
    <path fill="#FFAD45" d="M143.664,124.986 C143.372,124.288 142.908,123.668 142.266,123.228 L128.538,112.42 L15.462,112.42 L1.734,123.228 C1.094,123.668 0.628,124.288 0.336,124.986 L143.664,124.986 Z"/>
    <path stroke="#1E2126" stroke-linecap="round" stroke-linejoin="round" stroke-width="4" d="M109.4706,29.9236 C99.4946,21.3636 86.3746,15.9996 72.0006,15.9996 C40.7746,15.9996 15.4626,41.3116 15.4626,69.7116 L15.4626,112.4196 L1.7346,123.2276 C0.6486,123.9736 0.0006,125.2076 0.0006,126.5236 L0.0006,132.0396 C0.0006,138.5276 5.2606,143.7876 11.7486,143.7876 L132.2526,143.7876 C138.7406,143.7876 144.0006,138.5276 144.0006,132.0396 L144.0006,126.5236 C144.0006,125.2076 143.3506,123.9736 142.2646,123.2276 L128.5386,112.4196 L128.5386,69.7116"/>
    <path fill="#FF6F57" d="M143.9998,34.9998 C143.9998,48.8058 132.8078,59.9998 118.9998,59.9998 C105.1938,59.9998 93.9998,48.8058 93.9998,34.9998 C93.9998,21.1938 105.1938,9.9998 118.9998,9.9998 C132.8078,9.9998 143.9998,21.1938 143.9998,34.9998"/>
    <path stroke="#1E2126" stroke-linecap="round" stroke-linejoin="round" stroke-width="4" d="M143.9998,34.9998 C143.9998,48.8058 132.8078,59.9998 118.9998,59.9998 C105.1938,59.9998 93.9998,48.8058 93.9998,34.9998 C93.9998,21.1938 105.1938,9.9998 118.9998,9.9998 C132.8078,9.9998 143.9998,21.1938 143.9998,34.9998 Z"/>
    <path fill="#FFFFFF" d="M119.032,40.0524 C121.574,40.0524 123.616,42.0944 123.616,44.6364 C123.616,47.1324 121.574,49.1304 119.032,49.1304 C116.536,49.1304 114.538,47.1324 114.538,44.6364 C114.538,42.0944 116.536,40.0524 119.032,40.0524 M115.518,20.8684 L122.456,20.8684 C123.092,20.8684 123.604,21.3944 123.59,22.0304 L123.188,35.3724 C123.174,35.9904 122.67,36.4824 122.054,36.4824 L115.922,36.4824 C115.304,36.4824 114.8,35.9904 114.786,35.3724 L114.384,22.0304 C114.368,21.3944 114.882,20.8684 115.518,20.8684"/>
    <path stroke="#1E2126" stroke-linecap="round" stroke-linejoin="round" stroke-width="4" d="M110.4726 112.4196L117.0006 112.4196M26.9998 112.4196L98.0018 112.4196M79.9998 7.9998C79.9998 3.5818 76.4178-.0002 71.9998-.0002 67.5818-.0002 63.9998 3.5818 63.9998 7.9998 63.9998 12.4178 67.5818 15.9998 71.9998 15.9998 76.4178 15.9998 79.9998 12.4178 79.9998 7.9998z"/>
  </g>
</svg>
