<svg xmlns="http://www.w3.org/2000/svg" width="212" height="212" viewBox="0 0 212 212">
  <g fill="none" fill-rule="evenodd" transform="translate(5 29)">
    <path fill="#CBDAF7" d="M51.6836839,133.978936 L48.3615054,129.247831 C45.5623625,125.26289 46.5272732,119.765797 50.5149696,116.968587 C54.5008625,114.17318 60.0035589,115.137424 62.8027018,119.122366 L66.1230768,123.851669"/>
    <polyline stroke="#1E2126" stroke-linecap="round" stroke-linejoin="round" stroke-width="3.6" points="62.568 154.999 49.084 135.803 68.723 122.03 82.207 141.226"/>
    <path stroke="#1E2126" stroke-linecap="round" stroke-linejoin="round" stroke-width="3.6" d="M51.6836839,133.978936 L48.3615054,129.247831 C45.5623625,125.26289 46.5272732,119.765797 50.5149696,116.968587 C54.5008625,114.17318 60.0035589,115.137424 62.8027018,119.122366 L66.1230768,123.851669"/>
    <path fill="#7289DA" d="M170.993361,145.706308 L96.7727893,145.706308 C85.1902536,145.706308 75.7142893,136.23689 75.7142893,124.662355 L75.7142893,87.7453198 C75.7142893,76.1707849 85.1902536,66.7013663 96.7727893,66.7013663 L170.993361,66.7013663 C182.575896,66.7013663 192.051861,76.1707849 192.051861,87.7453198 L192.051861,124.662355 C192.051861,136.23689 182.575896,145.706308 170.993361,145.706308"/>
    <path fill="#C9D2F0" d="M157.315977,145.706308 L83.0954054,145.706308 C71.5128696,145.706308 62.0369054,136.23689 62.0369054,124.662355 L62.0369054,87.7453198 C62.0369054,76.1707849 71.5128696,66.7013663 83.0954054,66.7013663 L157.315977,66.7013663 C168.898512,66.7013663 178.374477,76.1707849 178.374477,87.7453198 L178.374477,124.662355 C178.374477,136.23689 168.898512,145.706308 157.315977,145.706308"/>
    <path stroke="#1E2126" stroke-linecap="round" stroke-linejoin="round" stroke-width="3.6" d="M96.7729696,66.7013663 L170.993541,66.7013663 C182.576077,66.7013663 192.052041,76.1707849 192.052041,87.7453198 L192.052041,124.662355 C192.052041,136.23689 182.576077,145.706308 170.993541,145.706308 L94.2714161,145.706308"/>
    <path stroke="#1E2126" stroke-linecap="round" stroke-linejoin="round" stroke-width="3.6" d="M157.315977,66.7013663 L83.0954054,66.7013663 C71.5128696,66.7013663 62.0369054,76.1707849 62.0369054,87.7453198 L62.0369054,124.662355 C62.0369054,136.23689 71.5128696,145.706308 83.0954054,145.706308"/>
    <path fill="#C9D2F0" d="M187.782987,116.348047 L173.042398,116.348047 L173.042398,78.4685698 L187.782987,78.4685698 C195.536541,78.4685698 201.821988,84.7514767 201.821988,92.4996744 L201.821988,102.318744 C201.821988,110.066942 195.536541,116.348047 187.782987,116.348047"/>
    <path stroke="#1E2126" stroke-linecap="round" stroke-linejoin="round" stroke-width="3.6" d="M173.042579,78.4692907 L187.783168,78.4692907 C195.536721,78.4692907 201.822168,84.7503953 201.822168,92.498593 L201.822168,102.317663 C201.822168,110.06586 195.536721,116.348767 187.783168,116.348767 L173.042579,116.348767"/>
    <path fill="#7289DA" d="M173.042579,107.931366 L173.042579,86.8874128 C173.042579,86.1124128 173.672025,85.4852035 174.445757,85.4852035 L187.783168,85.4852035 C191.659043,85.4852035 194.802668,88.6248547 194.802668,92.4980523 L194.802668,102.318924 C194.802668,106.192122 191.659043,109.333576 187.783168,109.333576 L174.445757,109.333576 C173.672025,109.333576 173.042579,108.706366 173.042579,107.931366"/>
    <path fill="#C9D2F0" d="M61.4590411,87.7449593 L69.8817196,87.7449593 L99.3647018,87.7449593 L109.190559,87.7449593 C113.823934,87.7449593 117.615041,91.5334477 117.615041,96.1618198 L117.615041,105.982692 C117.615041,117.555424 108.137273,127.026645 96.5565411,127.026645 L86.7288804,127.026645 L82.5175411,127.026645 L74.0948625,127.026645 C62.5123268,127.026645 53.0363625,117.555424 53.0363625,105.982692 L53.0363625,96.1618198 C53.0363625,91.5334477 56.8274696,87.7449593 61.4590411,87.7449593"/>
    <path fill="#F3F8FF" d="M86.7292411,127.026465 L74.0952232,127.026465 C62.5126875,127.026465 53.0367232,117.557047 53.0367232,105.982512 L53.0367232,96.1616395 C53.0367232,91.5332674 56.8260268,87.7447791 61.4594018,87.7447791 L99.3632589,87.7447791 C103.996634,87.7447791 107.787741,91.5332674 107.787741,96.1616395 L107.787741,105.982512 C107.787741,117.557047 98.3117768,127.026465 86.7292411,127.026465"/>
    <path stroke="#1E2126" stroke-linecap="round" stroke-linejoin="round" stroke-width="3.6" d="M94.3908125,87.7449593 L99.3632589,87.7449593 L109.19092,87.7449593 C113.824295,87.7449593 117.613598,91.5334477 117.613598,96.1618198 L117.613598,105.982692 C117.613598,117.555424 108.137634,127.026645 96.5569018,127.026645 L86.7292411,127.026645 L82.5179018,127.026645 L74.0952232,127.026645 C62.5126875,127.026645 53.0367232,117.555424 53.0367232,105.982692 L53.0367232,96.1618198 C53.0367232,91.5334477 56.8260268,87.7449593 61.4594018,87.7449593 L86.8446696,87.7449593"/>
    <path fill="#C9D2F0" d="M83.0393143 111.148878L86.5490643 111.148878 88.6538321 111.148878 92.1653857 111.148878C94.0952071 111.148878 95.6733321 112.727715 95.6733321 114.656203 95.6733321 116.586494 94.0952071 118.165331 92.1653857 118.165331L88.6538321 118.165331 86.5490643 118.165331 83.0393143 118.165331C81.1094929 118.165331 79.5295643 116.586494 79.5295643 114.656203 79.5295643 112.727715 81.1094929 111.148878 83.0393143 111.148878M66.54385 111.148878L68.6486179 111.148878 67.9470286 111.148878 70.0536 111.148878C71.9834214 111.148878 73.56335 112.727715 73.56335 114.656203 73.56335 116.586494 71.9834214 118.165331 70.0536 118.165331L67.9470286 118.165331 68.6486179 118.165331 66.54385 118.165331C64.6140286 118.165331 63.0341 116.586494 63.0341 114.656203 63.0341 112.727715 64.6140286 111.148878 66.54385 111.148878"/>
    <path stroke="#1E2126" stroke-linecap="round" stroke-linejoin="round" stroke-width="3.6" d="M132.636627,104.198209 L132.636627,103.736814 C132.636627,101.19914 134.714341,99.1228605 137.255573,99.1228605 L137.717288,99.1228605 C140.25852,99.1228605 142.336234,101.19914 142.336234,103.736814 L142.336234,104.198209"/>
    <polygon fill="#F3F8FF" points="164.551 58.552 149.167 1.932 90.572 58.552 52.732 71.45 198.624 71.45"/>
    <polyline stroke="#1E2126" stroke-linecap="round" stroke-linejoin="round" stroke-width="3.6" points="153.788 58.552 164.552 58.552 198.623 71.45 52.732 71.45 90.573 58.552 136.243 58.552"/>
    <polyline stroke="#1E2126" stroke-linecap="round" stroke-linejoin="round" stroke-width="3.6" points="164.551 58.552 149.872 0 90.572 58.552"/>
    <path fill="#CBDAF7" d="M131.696966,133.978936 L128.374787,129.247831 C125.575645,125.26289 126.540555,119.765797 130.528252,116.968587 C134.514145,114.17318 140.016841,115.137424 142.815984,119.122366 L146.136359,123.851669"/>
    <polyline fill="#FFFFFF" points="142.581 154.999 129.097 135.803 148.737 122.03 170.3 149.302"/>
    <polyline stroke="#1E2126" stroke-linecap="round" stroke-linejoin="round" stroke-width="3.6" points="142.581 154.999 129.097 135.803 148.737 122.03 166.834 145.838 171.725 145.838"/>
    <path stroke="#1E2126" stroke-linecap="round" stroke-linejoin="round" stroke-width="3.6" d="M131.696966,133.978936 L128.374787,129.247831 C125.575645,125.26289 126.540555,119.765797 130.528252,116.968587 C134.514145,114.17318 140.016841,115.137424 142.815984,119.122366 L146.136359,123.851669"/>
    <path fill="#FFD671" d="M48.6966089,40.0220814 L36.0716089,40.0220814 L36.0716089,27.4058023 C36.0716089,26.4109186 35.2636089,25.6034767 34.2680375,25.6034767 L16.2323232,25.6034767 C15.2367518,25.6034767 14.4287518,26.4109186 14.4287518,27.4058023 L14.4287518,40.0220814 L1.80375179,40.0220814 C0.808180357,40.0220814 0.000180357143,40.8295233 0.000180357143,41.824407 L0.000180357143,59.8476628 C0.000180357143,60.8443488 0.808180357,61.6499884 1.80375179,61.6499884 L14.4287518,61.6499884 L14.4287518,74.2662674 C14.4287518,75.2629535 15.2367518,76.068593 16.2323232,76.068593 L34.2680375,76.068593 C35.2636089,76.068593 36.0716089,75.2629535 36.0716089,74.2662674 L36.0716089,61.6499884 L48.6966089,61.6499884 C49.6921804,61.6499884 50.5001804,60.8443488 50.5001804,59.8476628 L50.5001804,41.824407 C50.5001804,40.8295233 49.6921804,40.0220814 48.6966089,40.0220814"/>
    <path stroke="#1E2126" stroke-linecap="round" stroke-linejoin="round" stroke-width="3.6" d="M48.6966089,40.0220814 L36.0716089,40.0220814 L36.0716089,27.4058023 C36.0716089,26.4109186 35.2636089,25.6034767 34.2680375,25.6034767 L16.2323232,25.6034767 C15.2367518,25.6034767 14.4287518,26.4109186 14.4287518,27.4058023 L14.4287518,40.0220814 L1.80375179,40.0220814 C0.808180357,40.0220814 0.000180357143,40.8295233 0.000180357143,41.824407 L0.000180357143,59.8476628 C0.000180357143,60.8443488 0.808180357,61.6499884 1.80375179,61.6499884 L14.4287518,61.6499884 L14.4287518,74.2662674 C14.4287518,75.2629535 15.2367518,76.068593 16.2323232,76.068593 L34.2680375,76.068593 C35.2636089,76.068593 36.0716089,75.2629535 36.0716089,74.2662674 L36.0716089,61.6499884 L48.6966089,61.6499884 C49.6921804,61.6499884 50.5001804,60.8443488 50.5001804,59.8476628 L50.5001804,41.824407 C50.5001804,40.8295233 49.6921804,40.0220814 48.6966089,40.0220814 Z"/>
    <path stroke="#D5DBED" stroke-linecap="round" stroke-linejoin="round" stroke-width="1.8" d="M84.8367536 13.5223081L83.0440036 15.7499826M75.8152893 22.8365465L74.0225393 25.0642209M85.2057643 24.7832384L83.2705321 22.6474826M75.5889411 15.9406686L73.6537089 13.8049128M36.0716089 106.776797C36.0716089 109.76325 33.6494125 112.183773 30.6608946 112.183773 27.6723768 112.183773 25.2501804 109.76325 25.2501804 106.776797 25.2501804 103.792145 27.6723768 101.36982 30.6608946 101.36982 33.6494125 101.36982 36.0716089 103.792145 36.0716089 106.776797z"/>
  </g>
</svg>
